<?xml version="1.0" encoding="UTF-8"?>
<svg id="Layer_1" data-name="Layer 1" xmlns="http://www.w3.org/2000/svg" viewBox="0 0 512 512">
  <path fill="#fff" d="M438.01,288.33V155.84c-26.82,3.79-53.14,7.49-79.44,11.25-51.22,7.32-102.42,14.88-153.69,21.81-7.61,1.03-9.44,3.61-9.41,10.92,.28,64.96,.24,129.93,.13,194.89-.07,38.24-19.62,68.09-52.38,80.59-34.37,13.11-72.93,1.63-94.59-28.15-21.7-29.85-20.74-69.69,2.4-98.63,22.52-28.17,61.65-37.94,95.14-23.74,2.36,1,4.68,2.11,8.31,3.76,.19-4.33,.47-7.64,.47-10.96,.03-72.57,.01-145.14,.02-217.72,0-20.81,4.03-25.95,24.42-28.91,76.38-11.08,152.79-21.92,229.19-32.86,14.47-2.07,28.94-4.13,43.39-6.32,16.56-2.51,26.89,5.88,26.9,22.5,.06,101.54,.22,203.09-.07,304.63-.13,43.16-33.2,78.17-75.48,81.16-41.59,2.94-80.19-27.66-85.86-68.07-6.12-43.64,20.02-82.35,62.53-92.2,19.85-4.6,38.83-1.25,57.99,8.54Z"/>
</svg>