<?xml version="1.0" encoding="UTF-8"?>
<svg id="Layer_1" data-name="Layer 1" xmlns="http://www.w3.org/2000/svg" viewBox="0 0 512 512">
  <path fill="#fff" d="M424.27,249.27c-.78,19.71-9.62,34.43-26.2,44.85-46.39,29.17-92.68,58.48-139.01,87.74-31.79,20.08-63.72,39.95-95.31,60.32-16.85,10.87-34.05,13.75-51.91,3.76-17.48-9.78-24.14-25.58-24.1-45.31,.22-97.14,.05-194.27,.13-291.41,.02-28.87,21.19-50.58,48.61-49.25,7.02,.34,14.63,2.41,20.71,5.89,80.66,46.2,161.15,92.71,241.55,139.37,16.68,9.68,24.75,24.92,25.53,44.03Z"/>
</svg>